<mxfile host="app.diagrams.net" agent="Mozilla/5.0 (Macintosh; Intel Mac OS X 10_15_7) AppleWebKit/537.36 (KHTML, like Gecko) Chrome/133.0.0.0 Safari/537.36" version="26.0.16">
  <diagram name="Page-1" id="R6ybLfLnJLzqz33o9FcM">
    <mxGraphModel dx="954" dy="543" grid="1" gridSize="10" guides="1" tooltips="1" connect="1" arrows="1" fold="1" page="1" pageScale="1" pageWidth="850" pageHeight="1100" math="0" shadow="0">
      <root>
        <mxCell id="0" />
        <mxCell id="1" parent="0" />
        <mxCell id="_s0SOZskeiOkc4n4i8FW-1" value="&lt;span style=&quot;color: rgba(0, 0, 0, 0); font-family: monospace; font-size: 0px; text-align: start; text-wrap-mode: nowrap;&quot;&gt;%3CmxGraphModel%3E%3Croot%3E%3CmxCell%20id%3D%220%22%2F%3E%3CmxCell%20id%3D%221%22%20parent%3D%220%22%2F%3E%3CmxCell%20id%3D%222%22%20value%3D%22%22%20style%3D%22endArrow%3Dclassic%3Bhtml%3D1%3Brounded%3D0%3B%22%20edge%3D%221%22%20parent%3D%221%22%3E%3CmxGeometry%20relative%3D%221%22%20as%3D%22geometry%22%3E%3CmxPoint%20x%3D%22320%22%20y%3D%2290%22%20as%3D%22sourcePoint%22%2F%3E%3CmxPoint%20x%3D%22260%22%20y%3D%2290%22%20as%3D%22targetPoint%22%2F%3E%3C%2FmxGeometry%3E%3C%2FmxCell%3E%3CmxCell%20id%3D%223%22%20value%3D%22Label%22%20style%3D%22edgeLabel%3Bresizable%3D0%3Bhtml%3D1%3B%3Balign%3Dcenter%3BverticalAlign%3Dmiddle%3B%22%20connectable%3D%220%22%20vertex%3D%221%22%20parent%3D%222%22%3E%3CmxGeometry%20relative%3D%221%22%20as%3D%22geometry%22%2F%3E%3C%2FmxCell%3E%3CmxCell%20id%3D%224%22%20value%3D%22Resp%22%20style%3D%22edgeLabel%3Bhtml%3D1%3Balign%3Dcenter%3BverticalAlign%3Dmiddle%3Bresizable%3D0%3Bpoints%3D%5B%5D%3B%22%20vertex%3D%221%22%20connectable%3D%220%22%20parent%3D%222%22%3E%3CmxGeometry%20x%3D%220.1%22%20relative%3D%221%22%20as%3D%22geometry%22%3E%3CmxPoint%20as%3D%22offset%22%2F%3E%3C%2FmxGeometry%3E%3C%2FmxCell%3E%3C%2Froot%3E%3C%2FmxGraphModel%3E&lt;/span&gt;" style="rounded=0;whiteSpace=wrap;html=1;" vertex="1" parent="1">
          <mxGeometry x="40" y="30" width="380" height="130" as="geometry" />
        </mxCell>
        <mxCell id="_s0SOZskeiOkc4n4i8FW-2" value="CDN" style="rounded=0;whiteSpace=wrap;html=1;" vertex="1" parent="1">
          <mxGeometry x="70" y="60" width="70" height="40" as="geometry" />
        </mxCell>
        <mxCell id="_s0SOZskeiOkc4n4i8FW-3" value="&lt;font style=&quot;font-size: 9px;&quot;&gt;CLIENT (WEB/MOBILE)&lt;/font&gt;" style="rounded=0;whiteSpace=wrap;html=1;" vertex="1" parent="1">
          <mxGeometry x="190" y="60" width="70" height="40" as="geometry" />
        </mxCell>
        <mxCell id="_s0SOZskeiOkc4n4i8FW-33" value="" style="edgeStyle=orthogonalEdgeStyle;rounded=0;orthogonalLoop=1;jettySize=auto;html=1;" edge="1" parent="1" source="_s0SOZskeiOkc4n4i8FW-4" target="_s0SOZskeiOkc4n4i8FW-3">
          <mxGeometry relative="1" as="geometry" />
        </mxCell>
        <mxCell id="_s0SOZskeiOkc4n4i8FW-4" value="&lt;font size=&quot;3&quot;&gt;DNS&lt;/font&gt;" style="rounded=0;whiteSpace=wrap;html=1;" vertex="1" parent="1">
          <mxGeometry x="320" y="60" width="70" height="40" as="geometry" />
        </mxCell>
        <mxCell id="_s0SOZskeiOkc4n4i8FW-8" value="" style="endArrow=classic;html=1;rounded=0;entryX=0;entryY=0.5;entryDx=0;entryDy=0;" edge="1" parent="1" target="_s0SOZskeiOkc4n4i8FW-4">
          <mxGeometry relative="1" as="geometry">
            <mxPoint x="260" y="79.5" as="sourcePoint" />
            <mxPoint x="310" y="80" as="targetPoint" />
          </mxGeometry>
        </mxCell>
        <mxCell id="_s0SOZskeiOkc4n4i8FW-9" value="Request" style="edgeLabel;resizable=0;html=1;;align=center;verticalAlign=middle;" connectable="0" vertex="1" parent="_s0SOZskeiOkc4n4i8FW-8">
          <mxGeometry relative="1" as="geometry" />
        </mxCell>
        <mxCell id="_s0SOZskeiOkc4n4i8FW-12" value="" style="endArrow=classic;html=1;rounded=0;entryX=0;entryY=0.5;entryDx=0;entryDy=0;" edge="1" parent="1" target="_s0SOZskeiOkc4n4i8FW-3">
          <mxGeometry relative="1" as="geometry">
            <mxPoint x="140" y="79.5" as="sourcePoint" />
            <mxPoint x="180" y="80" as="targetPoint" />
          </mxGeometry>
        </mxCell>
        <mxCell id="_s0SOZskeiOkc4n4i8FW-13" value="Request" style="edgeLabel;resizable=0;html=1;;align=center;verticalAlign=middle;" connectable="0" vertex="1" parent="_s0SOZskeiOkc4n4i8FW-12">
          <mxGeometry relative="1" as="geometry" />
        </mxCell>
        <mxCell id="_s0SOZskeiOkc4n4i8FW-27" value="" style="endArrow=classic;html=1;rounded=0;" edge="1" parent="1">
          <mxGeometry relative="1" as="geometry">
            <mxPoint x="320" y="90" as="sourcePoint" />
            <mxPoint x="260" y="90" as="targetPoint" />
          </mxGeometry>
        </mxCell>
        <mxCell id="_s0SOZskeiOkc4n4i8FW-28" value="Label" style="edgeLabel;resizable=0;html=1;;align=center;verticalAlign=middle;" connectable="0" vertex="1" parent="_s0SOZskeiOkc4n4i8FW-27">
          <mxGeometry relative="1" as="geometry" />
        </mxCell>
        <mxCell id="_s0SOZskeiOkc4n4i8FW-29" value="Resp" style="edgeLabel;html=1;align=center;verticalAlign=middle;resizable=0;points=[];" vertex="1" connectable="0" parent="_s0SOZskeiOkc4n4i8FW-27">
          <mxGeometry x="0.1" relative="1" as="geometry">
            <mxPoint as="offset" />
          </mxGeometry>
        </mxCell>
        <mxCell id="_s0SOZskeiOkc4n4i8FW-34" value="" style="endArrow=classic;html=1;rounded=0;exitX=0;exitY=0.75;exitDx=0;exitDy=0;entryX=1;entryY=0.75;entryDx=0;entryDy=0;" edge="1" parent="1" source="_s0SOZskeiOkc4n4i8FW-3" target="_s0SOZskeiOkc4n4i8FW-2">
          <mxGeometry relative="1" as="geometry">
            <mxPoint x="200" y="94.5" as="sourcePoint" />
            <mxPoint x="140" y="94.5" as="targetPoint" />
          </mxGeometry>
        </mxCell>
        <mxCell id="_s0SOZskeiOkc4n4i8FW-35" value="Label" style="edgeLabel;resizable=0;html=1;;align=center;verticalAlign=middle;" connectable="0" vertex="1" parent="_s0SOZskeiOkc4n4i8FW-34">
          <mxGeometry relative="1" as="geometry" />
        </mxCell>
        <mxCell id="_s0SOZskeiOkc4n4i8FW-36" value="Resp" style="edgeLabel;html=1;align=center;verticalAlign=middle;resizable=0;points=[];" vertex="1" connectable="0" parent="_s0SOZskeiOkc4n4i8FW-34">
          <mxGeometry x="0.1" relative="1" as="geometry">
            <mxPoint as="offset" />
          </mxGeometry>
        </mxCell>
        <mxCell id="_s0SOZskeiOkc4n4i8FW-37" value="" style="verticalLabelPosition=middle;verticalAlign=middle;html=1;shape=trapezoid;perimeter=trapezoidPerimeter;whiteSpace=wrap;size=0.23;arcSize=10;flipV=1;labelPosition=center;align=center;rotation=-180;" vertex="1" parent="1">
          <mxGeometry x="190" y="200" width="100" height="60" as="geometry" />
        </mxCell>
        <mxCell id="_s0SOZskeiOkc4n4i8FW-39" value="" style="whiteSpace=wrap;html=1;" vertex="1" parent="1">
          <mxGeometry x="180" y="310" width="120" height="60" as="geometry" />
        </mxCell>
        <mxCell id="_s0SOZskeiOkc4n4i8FW-40" value="" style="rounded=0;whiteSpace=wrap;html=1;" vertex="1" parent="1">
          <mxGeometry x="360" y="350" width="120" height="60" as="geometry" />
        </mxCell>
        <mxCell id="_s0SOZskeiOkc4n4i8FW-41" value="" style="rounded=0;whiteSpace=wrap;html=1;" vertex="1" parent="1">
          <mxGeometry x="360" y="240" width="120" height="60" as="geometry" />
        </mxCell>
        <mxCell id="_s0SOZskeiOkc4n4i8FW-43" value="" style="endArrow=classic;html=1;rounded=0;" edge="1" parent="1">
          <mxGeometry width="50" height="50" relative="1" as="geometry">
            <mxPoint x="239.5" y="160" as="sourcePoint" />
            <mxPoint x="240" y="200" as="targetPoint" />
          </mxGeometry>
        </mxCell>
        <mxCell id="_s0SOZskeiOkc4n4i8FW-45" value="" style="endArrow=classic;html=1;rounded=0;entryX=0.5;entryY=0;entryDx=0;entryDy=0;" edge="1" parent="1" target="_s0SOZskeiOkc4n4i8FW-39">
          <mxGeometry width="50" height="50" relative="1" as="geometry">
            <mxPoint x="239.5" y="260" as="sourcePoint" />
            <mxPoint x="240" y="300" as="targetPoint" />
          </mxGeometry>
        </mxCell>
        <mxCell id="_s0SOZskeiOkc4n4i8FW-48" value="" style="endArrow=classic;html=1;rounded=0;entryX=0;entryY=0.5;entryDx=0;entryDy=0;" edge="1" parent="1" target="_s0SOZskeiOkc4n4i8FW-41">
          <mxGeometry relative="1" as="geometry">
            <mxPoint x="300" y="330" as="sourcePoint" />
            <mxPoint x="400" y="330" as="targetPoint" />
          </mxGeometry>
        </mxCell>
        <mxCell id="_s0SOZskeiOkc4n4i8FW-49" value="getReels" style="edgeLabel;resizable=0;html=1;;align=center;verticalAlign=middle;" connectable="0" vertex="1" parent="_s0SOZskeiOkc4n4i8FW-48">
          <mxGeometry relative="1" as="geometry" />
        </mxCell>
        <mxCell id="_s0SOZskeiOkc4n4i8FW-50" value="" style="endArrow=classic;html=1;rounded=0;entryX=0;entryY=0.5;entryDx=0;entryDy=0;" edge="1" parent="1" target="_s0SOZskeiOkc4n4i8FW-40">
          <mxGeometry relative="1" as="geometry">
            <mxPoint x="300" y="330" as="sourcePoint" />
            <mxPoint x="400" y="330" as="targetPoint" />
          </mxGeometry>
        </mxCell>
        <mxCell id="_s0SOZskeiOkc4n4i8FW-51" value="postReels" style="edgeLabel;resizable=0;html=1;;align=center;verticalAlign=middle;" connectable="0" vertex="1" parent="_s0SOZskeiOkc4n4i8FW-50">
          <mxGeometry relative="1" as="geometry" />
        </mxCell>
      </root>
    </mxGraphModel>
  </diagram>
</mxfile>
